<?xml version="1.0" standalone="no"?>
<!DOCTYPE svg PUBLIC "-//W3C//DTD SVG 20010904//EN"
 "http://www.w3.org/TR/2001/REC-SVG-20010904/DTD/svg10.dtd">
<svg version="1.0" xmlns="http://www.w3.org/2000/svg"
 width="1024.000000pt" height="1024.000000pt" viewBox="0 0 1024.000000 1024.000000"
 preserveAspectRatio="xMidYMid meet">

<g transform="translate(0.000000,1024.000000) scale(0.100000,-0.100000)"
fill="#000000" stroke="none">
<path d="M1862 9420 c-173 -40 -379 -166 -488 -299 -143 -173 -217 -365 -230
-599 l-7 -117 -78 -38 c-97 -48 -167 -120 -199 -205 -22 -56 -22 -63 -22 -722
0 -654 1 -666 21 -721 30 -78 71 -131 141 -183 56 -41 161 -86 202 -86 18 0
18 -59 18 -1702 -1 -1874 -5 -1752 61 -1851 47 -72 137 -134 219 -152 19 -5
576 -7 1238 -7 l1202 2 0 -128 c-1 -263 -35 -353 -155 -408 -22 -10 -59 -30
-82 -46 l-42 -28 -993 1 c-1108 1 -1073 3 -1216 -68 -87 -43 -132 -78 -333
-265 -80 -73 -208 -191 -285 -261 -77 -70 -149 -142 -159 -160 -17 -27 -19
-48 -17 -127 2 -81 6 -100 27 -132 29 -44 87 -79 170 -105 58 -17 220 -18
4260 -18 l4200 0 71 22 c38 12 88 36 110 52 59 42 74 81 74 194 0 92 -1 97
-33 138 -18 24 -77 83 -131 132 -55 49 -176 160 -270 246 -253 233 -284 259
-353 292 -125 59 -101 58 -1410 61 l-1198 1 -30 23 c-16 12 -53 33 -80 47 -65
32 -98 67 -132 136 -27 54 -28 61 -28 226 l0 169 1220 2 c671 1 1234 5 1250 9
100 26 199 109 243 203 l27 57 3 2066 2 2066 43 16 c23 8 67 23 97 32 166 52
382 208 481 348 65 91 162 292 183 378 69 285 29 551 -121 802 -59 100 -221
271 -313 332 -95 63 -199 110 -315 142 -89 24 -117 27 -260 28 -201 0 -311
-25 -492 -113 -183 -89 -367 -272 -458 -456 l-33 -69 -2225 -1 -2225 -1 -7 60
c-20 186 -122 383 -276 536 -121 121 -201 170 -364 226 -95 33 -108 35 -260
39 -132 3 -174 0 -243 -16z m405 -90 c321 -75 592 -357 642 -670 12 -75 15
-257 4 -263 -5 -3 -34 -2 -65 0 l-56 5 -6 87 c-8 111 -32 233 -59 296 -56 131
-197 275 -342 348 -282 141 -628 72 -826 -166 -102 -121 -183 -349 -177 -495
l3 -72 -72 0 -73 0 0 73 c0 246 72 448 218 607 209 229 504 320 809 250z
m6370 -226 c95 -19 228 -76 313 -134 150 -101 292 -277 348 -432 25 -68 27
-84 26 -243 0 -144 -3 -182 -22 -250 -78 -279 -262 -494 -516 -602 -146 -62
-315 -86 -441 -64 l-60 10 -42 -44 c-40 -44 -42 -45 -70 -30 -15 8 -36 15 -47
15 -16 0 -18 -5 -13 -42 3 -24 9 -66 13 -94 l6 -52 -58 -16 c-77 -21 -258 -77
-262 -81 -2 -1 7 -76 18 -165 11 -89 19 -164 16 -167 -2 -2 -87 -28 -188 -57
l-183 -53 1 -29 c0 -16 4 -58 8 -94 l7 -65 -107 -37 c-60 -20 -109 -36 -110
-35 -4 4 487 683 567 786 10 13 16 28 12 34 -3 5 -2 7 4 4 5 -3 37 31 70 77
78 106 98 145 84 159 -6 6 -11 29 -11 50 l0 40 -45 -67 c-25 -37 -45 -72 -45
-77 0 -5 -4 -9 -10 -9 -5 0 -10 -4 -10 -10 0 -8 -144 -210 -324 -454 -29 -39
-90 -125 -136 -191 -46 -66 -116 -163 -156 -216 -40 -53 -80 -111 -89 -128
-15 -29 -56 -56 -77 -49 -4 2 22 41 59 88 81 103 188 250 308 425 49 72 175
245 280 385 216 287 231 310 217 310 -6 0 -48 -51 -94 -114 -45 -62 -114 -155
-152 -207 -167 -226 -368 -503 -445 -614 -46 -66 -108 -151 -137 -190 -29 -38
-61 -86 -71 -105 -11 -19 -24 -35 -29 -35 -10 0 -30 106 -40 215 l-6 75 182
255 c101 140 248 343 329 450 80 107 167 226 193 264 l48 69 -36 41 c-231 267
-284 614 -146 953 41 100 84 165 167 252 152 159 315 255 500 294 95 21 305
21 402 1z m-6397 -45 c89 -28 144 -62 219 -133 97 -92 164 -206 184 -313 l7
-33 -223 -1 c-122 -1 -334 -4 -472 -8 -246 -6 -251 -6 -309 -34 -33 -15 -79
-43 -103 -63 l-43 -35 0 33 c2 141 79 335 171 429 92 94 196 152 324 179 59
13 171 4 245 -21z m797 -750 c50 -16 127 -91 153 -151 l23 -53 -2 -640 c-1
-383 -6 -655 -12 -677 -13 -49 -65 -116 -116 -150 -36 -25 -135 -58 -171 -58
-24 0 -2 18 31 25 78 17 151 77 184 150 17 37 18 89 21 690 3 637 2 651 -17
686 -12 20 -18 39 -16 43 3 3 2 4 -1 1 -4 -2 -22 9 -41 25 -18 17 -43 30 -53
30 -19 0 -20 -8 -20 -142 0 -79 -3 -372 -6 -653 -6 -459 -8 -514 -24 -551 -24
-57 -72 -99 -139 -125 -52 -20 -66 -21 -201 -13 -80 5 -179 7 -220 4 -114 -6
-328 -5 -615 4 -210 7 -272 6 -320 -6 -83 -19 -332 -8 -366 16 -35 24 -49 20
-49 -15 0 -22 9 -40 31 -60 28 -26 20 -31 -16 -10 -6 3 0 -4 14 -16 13 -12 46
-32 72 -45 56 -27 63 -40 17 -32 -95 18 -174 80 -213 168 -23 51 -23 54 -30
682 -6 572 -6 637 9 688 27 93 118 178 208 195 62 11 1846 2 1885 -10z m3315
-6 c-580 -2 -1525 -2 -2100 0 -576 1 -102 2 1053 2 1155 0 1626 -1 1047 -2z
m-1122 -218 c171 -26 360 -78 507 -139 l63 -26 809 0 809 0 6 -37 c10 -53 88
-207 140 -276 l44 -59 -119 -161 c-203 -275 -586 -813 -604 -847 -14 -26 -15
-40 -6 -78 13 -59 19 -103 31 -220 8 -81 13 -97 37 -125 16 -18 38 -34 48 -35
22 -4 31 -10 24 -16 -2 -3 -97 -6 -211 -8 l-207 -3 6 136 c15 342 -86 705
-269 971 -250 363 -587 585 -1054 694 -112 26 -133 28 -349 29 -244 0 -280 -4
-493 -61 -153 -41 -334 -120 -462 -201 -202 -128 -425 -367 -542 -580 -41 -76
-55 -92 -37 -46 24 65 84 164 148 248 l69 89 1 111 c1 60 4 126 8 145 7 39 11
40 -60 -17 -16 -13 -33 -23 -38 -23 -20 0 -7 24 41 74 l50 53 0 91 0 92 -67 0
c-38 0 -105 3 -150 7 -79 6 -83 7 -83 29 l0 24 349 0 348 0 74 30 c150 62 388
122 574 145 137 17 420 12 565 -10z m-110 -491 c341 -58 643 -308 772 -641 51
-130 58 -203 58 -570 l0 -333 -34 0 -35 0 -3 383 -3 382 -32 88 c-39 109 -111
231 -181 306 l-54 56 51 -61 c69 -82 116 -178 116 -234 0 -36 -3 -44 -20 -45
-11 -1 -26 -4 -34 -6 -14 -4 -52 50 -44 64 2 4 -1 7 -7 7 -8 0 -9 -7 -5 -17
48 -116 49 -120 55 -526 3 -214 2 -391 -2 -394 -5 -2 -417 -3 -918 -1 l-910 2
0 307 c0 409 12 487 100 675 110 237 293 405 552 508 181 71 357 87 578 50z
m2710 -458 c0 -2 -8 -10 -17 -17 -16 -13 -17 -12 -4 4 13 16 21 21 21 13z
m-4493 -368 c-3 -8 -6 -5 -6 6 -1 11 2 17 5 13 3 -3 4 -12 1 -19z m-1519 -25
c-10 -2 -28 -2 -40 0 -13 2 -5 4 17 4 22 1 32 -1 23 -4z m-578 -153 c0 -5 -4
-10 -10 -10 -5 0 -10 5 -10 10 0 6 5 10 10 10 6 0 10 -4 10 -10z m148 -7 c-10
-2 -26 -2 -35 0 -10 3 -2 5 17 5 19 0 27 -2 18 -5z m1480 0 c-10 -2 -26 -2
-35 0 -10 3 -2 5 17 5 19 0 27 -2 18 -5z m369 -85 c-3 -8 -6 -5 -6 6 -1 11 2
17 5 13 3 -3 4 -12 1 -19z m-10 -40 c-3 -8 -6 -5 -6 6 -1 11 2 17 5 13 3 -3 4
-12 1 -19z m-834 -279 c199 -1 382 -2 407 -3 56 -3 269 48 332 80 52 26 58 34
68 78 4 20 9 -11 13 -89 4 -66 11 -137 16 -157 10 -41 -6 -56 -17 -16 -5 20
-6 20 -12 3 -6 -17 -23 -18 -291 -19 l-284 -1 -59 -29 c-62 -30 -123 -86 -163
-149 -51 -82 -54 -114 -51 -659 l3 -503 27 -55 c15 -30 33 -66 42 -80 8 -14
25 -54 37 -89 12 -35 38 -84 57 -109 18 -24 28 -40 20 -36 -16 11 -34 12 -217
16 -139 3 -144 2 -159 -20 -15 -22 -42 -30 -42 -12 0 6 -9 10 -20 10 -13 0
-20 -7 -20 -19 0 -25 -16 -36 -24 -15 -3 8 -2 12 4 9 6 -3 10 -2 10 4 0 17
-12 41 -21 41 -13 0 -11 -36 5 -75 21 -49 5 -44 -25 8 l-24 42 0 1005 c0 630
4 1024 10 1055 9 45 10 37 13 -82 l3 -133 362 -1z m824 229 c-3 -8 -6 -5 -6 6
-1 11 2 17 5 13 3 -3 4 -12 1 -19z m4273 -18 c0 -5 -3 -10 -7 -10 -5 0 -19 -3
-33 -6 l-25 -6 25 15 c31 18 40 20 40 7z m378 -1052 c-1 -530 -5 -911 -8 -848
-6 114 -6 114 -8 30 l-2 -85 -80 3 c-44 2 -81 4 -82 5 -1 1 -5 263 -8 582 l-5
580 -24 50 c-34 69 -98 130 -160 151 -38 14 -53 26 -62 48 -7 16 -23 41 -36
57 -13 15 -20 30 -16 32 5 3 37 13 71 22 148 38 204 77 313 215 91 117 94 119
102 120 4 0 6 -433 5 -962z m-663 635 c75 -41 144 -126 160 -200 10 -47 -5
-40 -44 22 -19 30 -36 53 -38 51 -2 -2 5 -31 17 -65 19 -59 21 -83 20 -434 -1
-493 -3 -526 -36 -588 -15 -27 -30 -49 -33 -49 -3 0 -17 -10 -31 -23 -33 -30
-118 -47 -239 -47 -53 0 -107 -3 -121 -7 l-25 -7 25 -7 c23 -7 23 -7 -7 -8
-25 -1 -31 2 -27 14 5 12 -2 15 -27 14 -27 0 -30 -2 -14 -8 13 -5 -7 -9 -55
-9 -41 -1 -82 -2 -90 -3 -8 -1 -42 -1 -75 0 -44 2 -55 5 -40 11 37 16 -344 11
-405 -5 -47 -13 -221 -15 -1210 -14 -975 1 -1146 3 -1095 14 57 13 52 13 -95
10 -85 -2 -166 -6 -180 -8 -14 -2 -28 1 -32 7 -5 7 -13 4 -23 -9 -15 -20 -15
-20 -10 0 5 18 5 18 -6 3 -12 -15 -14 -15 -27 0 -7 9 -11 12 -8 6 11 -22 -32
-25 -116 -9 -29 5 -38 4 -38 -6 0 -11 -3 -11 -10 1 -7 10 -13 11 -17 5 -12
-17 -558 -19 -595 -3 -15 7 -28 16 -28 20 0 5 -7 8 -15 8 -17 0 -20 -21 -6
-35 6 -6 5 -17 -4 -28 -13 -18 -14 -18 -24 1 -7 14 -7 22 -1 25 6 3 5 4 -2 3
-7 -2 -12 -9 -10 -15 4 -21 -33 6 -63 45 -15 20 -37 59 -49 88 -20 49 -21 71
-24 501 -2 314 0 468 8 510 20 104 80 181 175 226 l60 28 2245 -2 2245 -2 40
-22z m-3590 -1353 c3 -5 1 -10 -4 -10 -6 0 -11 5 -11 10 0 6 2 10 4 10 3 0 8
-4 11 -10z m105 0 c0 -5 -13 -10 -30 -10 -16 0 -30 5 -30 10 0 6 14 10 30 10
17 0 30 -4 30 -10z m-1080 -31 c0 -11 -4 -18 -10 -14 -5 3 -7 12 -3 20 7 21
13 19 13 -6z m30 -10 c0 -6 -4 -7 -10 -4 -5 3 -10 11 -10 16 0 6 5 7 10 4 6
-3 10 -11 10 -16z m5007 -151 c-3 -7 -5 -2 -5 12 0 14 2 19 5 13 2 -7 2 -19 0
-25z m-5113 -107 c4 -5 -3 -7 -14 -4 -23 6 -26 13 -6 13 8 0 17 -4 20 -9z m46
-41 c0 -5 -2 -10 -4 -10 -3 0 -8 5 -11 10 -3 6 -1 10 4 10 6 0 11 -4 11 -10z
m135 -83 c19 -4 19 -5 -1 -6 -12 0 -28 7 -35 17 -12 15 -12 16 1 6 8 -7 24
-14 35 -17z m4650 -99 c-17 -45 79 -43 -2419 -43 -2344 0 -2361 0 -2391 20
l-29 20 424 5 c234 3 1324 7 2423 9 1760 3 1997 2 1992 -11z m1168 -675 c-6
-355 -7 -374 -31 -419 -29 -57 -101 -117 -163 -137 -47 -16 -303 -17 -3443
-17 -2277 0 -3403 3 -3428 10 -69 20 -130 70 -163 134 l-29 59 -1 284 0 283
3631 0 3630 0 -3 -197z m-2738 -850 c3 -10 9 -47 12 -83 10 -126 49 -224 112
-284 16 -16 60 -45 97 -65 61 -33 135 -103 122 -116 -2 -3 -571 -4 -1263 -3
l-1258 3 26 30 c14 17 69 55 123 85 146 83 184 144 204 330 5 52 10 101 10
108 0 9 188 12 904 12 852 0 904 -1 911 -17z m-2240 -522 l-30 -29 -550 9
c-302 5 -716 12 -920 15 -471 8 -533 -1 -662 -92 l-48 -34 503 0 503 0 -99
-122 c-141 -176 -282 -368 -282 -385 0 -8 -8 -27 -18 -41 -57 -86 -53 -122 18
-162 l45 -25 2675 0 c2567 0 2676 1 2712 18 21 11 41 31 48 48 12 27 9 37 -33
122 -25 50 -79 138 -119 193 -40 56 -112 156 -160 222 -49 67 -88 124 -88 127
0 3 174 5 388 5 l387 -1 -60 -25 c-91 -37 -132 -70 -151 -119 -9 -24 -13 -52
-10 -62 5 -14 -1 -23 -20 -33 -14 -8 -32 -27 -40 -42 -13 -25 -13 -32 1 -61
16 -32 81 -88 145 -123 19 -10 46 -29 59 -41 19 -17 27 -19 33 -10 7 11 12 2
9 -16 -1 -5 3 -6 9 -2 5 3 22 -6 36 -22 41 -45 107 -84 116 -70 5 8 8 5 8 -8
0 -17 2 -17 10 -5 8 13 10 12 10 -4 0 -12 5 -16 14 -13 11 4 13 1 9 -10 -4
-11 -2 -14 5 -9 7 4 12 2 12 -6 0 -9 3 -9 10 2 8 13 10 12 10 -4 0 -15 3 -16
15 -6 13 11 14 10 9 -4 -3 -9 -1 -16 5 -16 6 0 11 5 11 10 0 6 4 10 10 10 5 0
7 -7 4 -15 -6 -14 11 -20 39 -16 4 0 7 -3 7 -8 0 -16 500 -11 570 5 123 28
230 103 230 160 0 13 -15 41 -34 61 -30 34 -34 45 -38 113 -5 83 -27 136 -85
207 -43 54 -148 129 -221 159 l-57 24 160 0 160 1 -30 25 c-65 53 -144 83
-255 95 -105 12 -1527 6 -2071 -7 l-236 -6 -22 23 -22 24 1168 3 c815 2 1188
-1 1235 -8 73 -13 159 -50 229 -101 51 -37 515 -464 617 -567 54 -55 62 -68
62 -101 0 -49 -36 -84 -115 -111 -151 -53 110 -50 -4302 -50 -4048 0 -4096 0
-4192 20 -117 24 -165 42 -197 77 -52 56 -25 117 101 226 45 40 181 164 301
275 279 259 351 308 486 331 29 5 492 9 1028 10 l975 1 -30 -29z m-700 -111
c11 -17 -7 -59 -31 -75 -19 -12 -58 -16 -187 -18 -89 -1 -174 1 -189 6 -19 5
-28 4 -28 -5 0 -6 -8 -21 -17 -32 -10 -12 -11 -15 -3 -8 14 12 130 18 130 6 0
-4 -21 -37 -46 -75 l-46 -69 -64 0 c-54 0 -64 3 -64 18 -1 16 -1 16 -11 -1
-24 -42 -12 -44 214 -42 119 1 220 0 225 -4 6 -3 -7 -34 -29 -70 -66 -110 -39
-101 -306 -101 -235 0 -240 1 -234 34 1 5 -5 3 -14 -4 -9 -8 -15 -24 -13 -39
l3 -26 260 0 260 0 43 83 c51 97 68 104 23 9 -17 -36 -31 -69 -31 -75 0 -18
31 -22 194 -22 188 0 179 -4 216 100 31 85 48 110 75 110 12 0 29 8 38 18 19
20 52 110 44 118 -5 6 -42 -54 -52 -85 -6 -20 -12 -21 -149 -21 -78 0 -145 3
-148 6 -4 3 6 34 20 68 l26 63 129 6 c70 3 144 3 163 0 31 -5 35 -9 31 -29 -2
-13 0 -21 4 -18 5 3 9 13 9 23 0 17 11 19 98 23 53 2 120 2 149 0 l51 -4 -22
-66 -23 -67 -152 0 c-129 0 -151 -2 -149 -15 4 -21 289 -28 305 -8 6 7 21 45
33 84 l22 72 47 5 c68 8 261 4 267 -5 3 -4 0 -25 -5 -45 -6 -21 -12 -49 -14
-63 -4 -23 -8 -25 -62 -27 -42 -1 -55 1 -44 9 11 7 9 8 -6 3 -26 -8 -195 -20
-195 -13 0 3 7 25 15 48 8 23 15 48 14 54 -1 19 -38 -72 -41 -102 l-3 -27 88
-3 c56 -2 87 -7 87 -14 0 -6 -16 -44 -36 -85 l-36 -73 -279 0 c-274 0 -279 0
-279 20 0 11 7 37 15 57 22 53 10 53 -13 0 -54 -123 -68 -117 273 -117 156 0
290 3 299 6 9 3 29 48 48 105 l32 99 63 0 c38 0 65 5 70 13 4 6 16 46 25 87
13 55 16 61 11 25 -3 -27 -6 -66 -7 -85 l-1 -35 93 -3 c50 -1 92 -5 92 -8 0
-2 -8 -32 -17 -67 -26 -99 -23 -97 -196 -97 l-149 0 6 28 c4 15 9 35 12 45 3
9 1 17 -4 17 -12 0 -35 -81 -30 -106 3 -17 16 -19 143 -22 168 -4 199 1 212
31 11 21 11 22 19 2 4 -11 12 -23 18 -27 20 -14 322 -9 334 5 5 6 13 37 16 67
17 140 12 130 65 130 26 0 52 5 59 12 7 7 12 40 12 79 0 37 5 71 10 74 21 13
120 17 221 11 l104 -8 -3 -69 -4 -69 -148 0 c-133 0 -149 2 -153 18 -3 10 -5
7 -6 -10 -1 -35 19 -41 128 -36 45 2 82 0 84 -3 1 -3 27 -3 57 0 l55 6 5 80
c6 91 18 82 22 -15 l3 -65 150 0 150 0 -2 85 c-1 59 1 76 6 55 5 -16 9 -47 10
-68 2 -58 16 -77 56 -77 19 0 35 -1 35 -2 6 -83 22 -183 31 -194 9 -11 48 -14
193 -14 99 0 187 4 195 9 12 8 12 15 -2 50 -9 22 -14 47 -11 56 4 8 -1 33 -10
55 -9 23 -12 40 -6 40 15 0 30 -45 40 -115 14 -93 18 -95 230 -95 191 0 209 5
195 51 -7 20 -8 20 -17 6 -8 -15 -31 -17 -178 -17 -139 0 -171 3 -184 15 -12
12 -56 131 -56 151 0 2 36 4 79 4 123 0 124 2 92 105 l-19 60 22 7 c30 9 279
9 293 0 15 -10 43 -86 43 -118 l0 -24 -139 0 c-155 0 -146 -4 -173 75 -11 32
-16 39 -14 20 6 -42 23 -105 31 -113 4 -4 42 -9 85 -10 l79 -4 42 -97 c23 -53
47 -99 53 -103 6 -4 86 -8 177 -8 179 0 198 5 184 50 -5 16 -10 18 -20 10 -18
-15 -283 -25 -316 -12 -19 8 -33 29 -56 86 l-31 76 47 0 c73 0 77 6 57 86 -11
43 -14 70 -7 77 5 5 40 9 78 9 85 -1 103 4 103 29 0 10 -2 19 -4 19 -2 0 -12
3 -22 7 -13 5 -16 3 -11 -10 6 -15 -7 -17 -143 -17 -93 0 -150 4 -150 10 0 6
5 10 11 10 5 0 7 5 4 10 -11 17 -25 11 -25 -11 0 -34 -22 -16 -35 29 -12 39
-11 42 6 42 10 0 19 5 19 10 0 6 53 10 139 10 111 0 141 -3 151 -15 7 -8 20
-14 28 -13 11 2 21 -13 33 -52 l16 -55 206 -1 c112 0 212 -4 221 -7 19 -7 22
23 6 54 -14 25 -30 24 -30 -1 0 -19 -7 -20 -169 -20 -93 0 -181 4 -195 10 -14
5 -34 27 -45 49 -18 34 -19 40 -5 45 9 3 91 6 183 6 249 0 250 0 406 -214 44
-60 117 -159 162 -220 77 -103 83 -115 83 -159 0 -38 -5 -53 -25 -73 l-25 -25
-207 6 c-115 3 -383 7 -598 10 -214 2 -428 6 -475 9 -47 3 -332 7 -635 9 -302
2 -453 1 -335 -2 195 -5 168 -7 -297 -14 -281 -5 -695 -5 -919 -1 -307 5 -405
4 -400 -4 5 -9 -165 -12 -687 -12 -789 0 -732 -7 -741 83 -3 27 -1 58 5 68 5
11 56 79 112 152 299 391 261 348 327 370 52 18 384 24 395 7z m305 0 c0 -5
15 -10 34 -10 19 0 38 5 41 10 4 6 57 10 126 10 99 0 119 -3 119 -15 0 -8 7
-15 15 -15 8 0 15 5 15 10 0 6 7 10 15 10 14 0 14 -3 -1 -27 -14 -25 -13 -25
13 5 l29 32 122 0 c66 0 123 -4 127 -10 9 -15 -21 -77 -44 -89 -14 -8 -62 -9
-147 -5 -104 6 -131 11 -145 25 -18 18 -19 18 -29 -1 -10 -18 -21 -20 -135
-20 -69 0 -125 3 -125 6 0 3 5 14 11 25 20 39 3 42 -20 3 -24 -39 -42 -34 -21
5 6 12 7 21 2 21 -5 0 -15 -13 -22 -30 l-12 -30 -134 0 c-111 0 -134 3 -134
15 0 8 9 19 20 25 12 6 25 22 30 36 9 24 11 24 130 24 73 0 120 -4 120 -10z
m975 0 c8 -13 65 -13 65 0 0 7 45 10 128 8 l127 -3 1 -43 c1 -23 -3 -45 -9
-49 -5 -3 -68 -8 -138 -11 l-128 -4 -7 26 c-3 14 -10 23 -15 20 -5 -3 -9 3 -9
13 0 13 -6 8 -20 -14 -19 -32 -22 -33 -87 -33 -38 0 -99 -3 -137 -7 -57 -5
-68 -4 -64 8 3 8 8 25 12 39 6 23 6 23 -9 -3 -21 -37 -28 -30 -13 11 7 19 19
32 30 32 9 0 20 5 23 10 4 6 57 10 125 10 68 0 121 -4 125 -10z m654 -4 c7 -9
9 -29 5 -55 l-7 -41 -114 0 c-67 0 -123 5 -136 11 -16 9 -22 9 -25 0 -7 -22
-32 -11 -32 14 0 18 5 25 20 25 11 0 20 7 20 16 0 11 -6 14 -21 9 -16 -5 -20
-3 -17 6 3 8 15 13 27 12 11 -2 21 2 21 7 0 17 245 13 259 -4z m333 4 c3 -3 3
-26 0 -52 l-4 -47 -131 2 -132 2 -3 33 c-2 17 -8 32 -14 32 -6 0 -9 -16 -6
-40 2 -28 0 -40 -9 -40 -9 0 -13 17 -13 56 0 51 2 56 20 51 11 -3 23 -1 26 5
6 10 258 8 266 -2z m341 -2 c21 -2 41 0 43 4 9 14 240 10 252 -4 5 -7 11 -32
14 -54 l3 -42 -117 -1 c-131 -2 -158 7 -158 51 0 15 -5 30 -12 34 -8 5 -9 -7
-5 -46 4 -29 9 -55 12 -58 3 -3 99 -5 213 -4 114 1 219 0 233 -3 21 -5 29 -17
47 -68 12 -34 18 -65 13 -70 -4 -4 -74 -6 -156 -5 l-149 3 -14 63 c-7 34 -18
62 -23 62 -11 0 -12 4 6 -54 18 -58 18 -66 5 -66 -5 0 -11 12 -11 28 l-1 27
-7 -30 -6 -30 -152 -3 -151 -3 -7 43 c-3 24 -8 55 -11 69 -5 25 -2 27 42 33
26 3 60 6 75 6 29 0 29 1 29 57 0 62 -16 64 -22 3 l-3 -35 -129 -3 c-97 -2
-131 1 -138 10 -10 16 -11 82 -1 92 7 7 204 3 286 -6z m645 -5 c11 -10 23 -34
26 -53 l6 -35 -73 1 c-39 0 -107 1 -149 2 l-78 2 0 28 c0 15 -5 33 -11 39 -26
26 4 33 130 33 108 0 132 -3 149 -17z m-3225 -13 c-3 -11 -7 -20 -9 -20 -2 0
-4 9 -4 20 0 11 4 20 9 20 5 0 7 -9 4 -20z m2277 -25 c0 -19 -4 -37 -10 -40
-6 -4 -10 12 -10 40 0 28 4 44 10 40 6 -3 10 -21 10 -40z m660 -14 c0 -22 -4
-43 -10 -46 -6 -4 -10 12 -10 39 0 25 5 46 10 46 6 0 10 -18 10 -39z m2595 15
c104 -26 242 -94 298 -150 49 -47 90 -123 101 -186 4 -22 3 -30 -3 -21 -7 10
-13 5 -26 -23 -17 -35 -76 -91 -121 -114 -102 -53 -277 -63 -404 -24 -153 49
-225 97 -270 180 -65 122 -128 170 -254 194 -56 11 -63 15 -55 29 21 39 163
98 304 125 94 18 337 12 430 -10z m-4199 -76 c45 -5 49 -7 46 -30 -8 -73 -14
-91 -35 -100 l-22 -9 22 0 c15 -1 24 8 31 27 6 15 11 20 11 10 2 -47 -2 -48
-166 -48 -133 0 -154 2 -149 15 3 8 8 37 12 65 8 62 20 70 113 70 67 0 71 1
72 23 0 21 1 21 8 2 6 -15 20 -21 57 -25z m1011 -8 c58 -4 63 -11 63 -95 l0
-48 -137 3 -138 3 -6 65 c-3 36 -4 67 -2 69 2 3 20 4 41 3 20 -1 51 2 67 7 17
5 37 7 45 3 8 -3 38 -7 67 -10z m-2313 -1 c4 -5 -8 -39 -26 -75 l-32 -66 -179
0 -179 0 6 32 c3 18 15 42 26 53 11 12 18 25 15 28 -3 4 -2 5 2 2 3 -3 13 1
21 8 9 7 58 14 121 17 58 3 132 6 163 8 31 1 59 -2 62 -7z m1690 3 c18 -7 22
-77 6 -118 l-10 -26 -148 0 -149 0 -7 39 c-7 46 9 98 32 104 26 7 258 8 276 1z
m-1654 -18 c0 -2 -14 -34 -31 -70 -17 -37 -28 -70 -24 -74 3 -4 58 -9 121 -10
90 -3 114 -7 114 -18 0 -8 -4 -14 -8 -14 -5 0 -23 -30 -41 -67 l-32 -68 -165
0 c-90 0 -164 1 -164 1 0 1 12 27 26 58 14 31 22 60 19 66 -11 17 11 35 46 38
50 4 63 16 94 91 17 39 33 71 38 71 4 0 7 -2 7 -4z m1337 -105 c-9 -43 7 -51
110 -51 86 0 93 -2 93 -20 0 -42 -23 -126 -38 -137 -11 -9 -60 -13 -159 -13
l-143 0 -1 33 c-1 23 -3 26 -6 10 -2 -13 -9 -23 -14 -23 -13 0 -12 11 8 80 15
57 18 60 52 65 78 13 80 14 87 50 3 19 9 35 11 35 3 0 3 -13 0 -29z m1453 -51
l39 0 16 -75 c9 -40 14 -79 10 -85 -4 -6 -67 -10 -170 -10 -190 0 -183 -4
-195 107 l-6 63 101 0 c70 0 107 4 120 14 16 11 21 11 33 0 7 -8 31 -14 52
-14z"/>
<path d="M8745 8590 c10 -11 20 -20 23 -20 3 0 -3 9 -13 20 -10 11 -20 20 -23
20 -3 0 3 -9 13 -20z"/>
<path d="M8109 8563 l-24 -28 28 24 c15 14 27 26 27 28 0 8 -8 1 -31 -24z"/>
<path d="M9166 8555 c20 -66 25 -91 28 -146 2 -45 0 -59 -10 -55 -9 4 -11 -8
-7 -47 7 -70 -11 -210 -37 -288 -43 -126 -149 -272 -260 -357 -220 -169 -547
-195 -805 -65 -118 60 -271 184 -313 253 -12 20 -37 78 -57 130 -20 52 -39 97
-42 100 -13 11 10 -78 38 -148 92 -232 325 -417 587 -468 276 -53 536 35 741
252 89 94 154 210 188 334 36 135 18 368 -37 483 -11 23 -17 33 -14 22z"/>
<path d="M8780 8556 c0 -2 8 -10 18 -17 15 -13 16 -12 3 4 -13 16 -21 21 -21
13z"/>
<path d="M8362 8497 c-93 -35 -158 -136 -150 -231 6 -78 43 -145 102 -183 26
-18 56 -33 65 -33 10 0 5 7 -14 19 -137 85 -138 257 0 328 103 54 253 -23 272
-140 3 -20 10 -34 15 -31 15 10 -1 -37 -24 -69 -11 -16 -18 -30 -16 -32 2 -3
16 14 30 36 69 106 27 263 -85 320 -50 26 -148 34 -195 16z"/>
<path d="M7993 8275 c0 -27 2 -38 4 -22 2 15 2 37 0 50 -2 12 -4 0 -4 -28z"/>
<path d="M8882 8220 c0 -14 2 -19 5 -12 2 6 2 18 0 25 -3 6 -5 1 -5 -13z"/>
<path d="M8050 8043 c0 -6 8 -17 18 -24 16 -13 16 -13 2 6 -8 11 -16 22 -17
24 -2 2 -3 0 -3 -6z"/>
<path d="M8735 7942 c-17 -15 -41 -35 -55 -45 -24 -17 -24 -17 8 0 18 10 45
30 59 45 34 36 27 36 -12 0z"/>
<path d="M8147 7929 c12 -12 24 -21 27 -18 2 2 -8 13 -22 23 l-27 19 22 -24z"/>
<path d="M8215 7881 c6 -5 28 -17 50 -27 52 -21 38 -7 -17 18 -24 11 -38 15
-33 9z"/>
<path d="M8328 7833 c7 -3 16 -2 19 1 4 3 -2 6 -13 5 -11 0 -14 -3 -6 -6z"/>
<path d="M8408 7823 c12 -2 32 -2 45 0 12 2 2 4 -23 4 -25 0 -35 -2 -22 -4z"/>
<path d="M3075 8220 c10 -11 20 -20 23 -20 3 0 -3 9 -13 20 -10 11 -20 20 -23
20 -3 0 3 -9 13 -20z"/>
<path d="M1955 7984 c-107 -27 -175 -81 -217 -171 -28 -58 -30 -71 -25 -136 6
-87 30 -146 87 -210 l43 -48 -12 -97 c-6 -53 -18 -146 -26 -207 -8 -60 -15
-125 -15 -142 0 -31 1 -32 26 -23 14 6 99 10 189 10 90 0 166 3 168 8 5 9 -17
219 -37 357 l-15 100 27 23 c111 94 142 154 142 270 0 108 -53 183 -167 241
-42 21 -131 34 -168 25z m-109 -510 c30 -24 46 -54 27 -54 -10 0 -73 62 -73
72 0 13 10 9 46 -18z"/>
<path d="M2618 6753 c6 -2 18 -2 25 0 6 3 1 5 -13 5 -14 0 -19 -2 -12 -5z"/>
<path d="M6632 7637 c-27 -29 -28 -63 -3 -77 12 -6 133 -10 324 -10 282 0 305
1 320 18 22 24 21 55 -1 75 -16 15 -53 17 -319 17 l-300 0 -21 -23z"/>
<path d="M6938 7183 c34 -2 90 -2 125 0 34 2 6 3 -63 3 -69 0 -97 -1 -62 -3z"/>
<path d="M5565 7130 c10 -11 20 -20 23 -20 3 0 -3 9 -13 20 -10 11 -20 20 -23
20 -3 0 3 -9 13 -20z"/>
<path d="M4411 6985 c-91 -29 -155 -123 -154 -230 1 -76 20 -121 76 -173 58
-53 113 -68 185 -52 223 50 255 350 48 446 -57 27 -91 29 -155 9z m118 -71
c27 -35 26 -59 -4 -89 -31 -32 -69 -32 -102 1 -20 20 -24 31 -19 57 8 39 30
57 72 57 23 0 39 -8 53 -26z m82 -94 c29 -16 26 -75 -5 -95 -57 -38 -115 36
-66 85 22 22 42 25 71 10z"/>
<path d="M5300 6987 c-50 -16 -136 -103 -149 -152 -34 -126 21 -243 140 -295
59 -25 108 -24 161 2 152 74 184 262 66 387 -59 63 -137 84 -218 58z m110 -74
c55 -70 -42 -151 -105 -88 -30 29 -32 64 -5 93 30 32 82 30 110 -5z m98 -95
c32 -32 0 -98 -48 -98 -33 0 -50 17 -50 49 0 49 65 82 98 49z"/>
<path d="M4683 6463 c-41 -62 -10 -183 67 -267 45 -49 63 -57 59 -28 -6 37 11
70 45 86 19 9 40 16 48 15 7 0 2 -5 -12 -11 -24 -10 -24 -10 -5 -18 43 -18 70
-11 110 30 23 24 58 46 87 56 82 27 125 106 80 147 -27 25 -51 21 -128 -19
-61 -32 -73 -35 -118 -29 -28 4 -80 20 -115 36 -78 36 -96 36 -118 2z"/>
<path d="M2042 4425 c0 -16 2 -22 5 -12 2 9 2 23 0 30 -3 6 -5 -1 -5 -18z"/>
<path d="M2490 4381 c0 -5 5 -13 10 -16 6 -3 10 -2 10 4 0 5 -4 13 -10 16 -5
3 -10 2 -10 -4z"/>
<path d="M5748 5343 c23 -2 59 -2 80 0 20 2 1 4 -43 4 -44 0 -61 -2 -37 -4z"/>
<path d="M6248 5343 c56 -2 148 -2 205 0 56 1 10 3 -103 3 -113 0 -159 -2
-102 -3z"/>
<path d="M3167 5049 c7 -7 15 -10 18 -7 3 3 -2 9 -12 12 -14 6 -15 5 -6 -5z"/>
<path d="M5668 4923 c7 -3 16 -2 19 1 4 3 -2 6 -13 5 -11 0 -14 -3 -6 -6z"/>
<path d="M3948 4910 c12 -5 25 -17 29 -26 6 -15 7 -15 20 2 19 26 17 29 -30
31 -34 2 -38 0 -19 -7z"/>
<path d="M4028 4913 c6 -2 18 -2 25 0 6 3 1 5 -13 5 -14 0 -19 -2 -12 -5z"/>
<path d="M4988 4913 c7 -3 16 -2 19 1 4 3 -2 6 -13 5 -11 0 -14 -3 -6 -6z"/>
<path d="M5913 4913 c9 -2 23 -2 30 0 6 3 -1 5 -18 5 -16 0 -22 -2 -12 -5z"/>
<path d="M5696 4901 c-4 -6 -10 -42 -13 -80 l-6 -69 -93 0 c-55 0 -97 4 -100
10 -4 6 -12 -4 -18 -23 -14 -43 -55 -52 -80 -17 l-16 22 -16 -22 c-18 -26 -65
-30 -84 -7 -12 14 -15 14 -31 -1 -12 -10 -29 -15 -48 -12 -23 3 -28 1 -21 -7
11 -13 57 -9 77 7 7 5 14 5 18 -2 9 -14 78 -13 93 2 9 9 15 9 24 0 19 -19 73
-14 93 8 13 14 25 17 46 13 21 -4 36 0 49 12 19 17 21 17 38 2 10 -10 35 -17
54 -17 38 0 47 11 49 58 l1 27 9 -25 c6 -17 7 -3 4 44 -5 69 -16 99 -29 77z"/>
<path d="M5952 4860 c-1 -26 -7 -51 -14 -58 -9 -9 -9 -12 0 -12 15 0 25 39 19
81 -3 29 -4 27 -5 -11z"/>
<path d="M3921 4885 c0 -5 6 -21 14 -35 8 -14 14 -20 14 -15 0 6 -6 21 -14 35
-8 14 -14 21 -14 15z"/>
<path d="M5758 4876 c-22 -16 -23 -26 -4 -26 10 0 16 -13 19 -37 3 -28 4 -23
5 20 1 31 1 57 0 57 -2 0 -11 -7 -20 -14z"/>
<path d="M4265 4830 c-8 -16 -15 -40 -15 -55 0 -23 -3 -25 -45 -25 -31 0 -47
5 -51 15 -5 13 -8 13 -27 0 -43 -30 -88 -16 -100 30 -3 15 -5 13 -6 -8 -1 -19
-8 -30 -23 -36 -21 -8 -21 -10 -5 -16 10 -4 23 -3 28 2 7 7 20 7 40 0 22 -9
37 -8 61 1 17 6 36 8 42 3 6 -5 29 -11 52 -13 37 -5 42 -3 61 26 30 43 41 106
19 106 -8 0 -22 -13 -31 -30z"/>
<path d="M5021 4834 c0 -11 3 -14 6 -6 3 7 2 16 -1 19 -3 4 -6 -2 -5 -13z"/>
<path d="M4916 4819 c-10 -10 -15 -23 -11 -30 6 -8 13 -3 22 15 18 34 14 39
-11 15z"/>
<path d="M5878 4795 c4 -41 3 -45 -17 -45 -11 0 -21 -5 -21 -11 0 -6 10 -9 23
-7 15 2 23 11 26 28 1 14 8 28 15 32 8 6 8 8 -1 8 -7 0 -13 6 -13 14 0 8 -4
17 -9 20 -5 3 -6 -15 -3 -39z"/>
<path d="M4190 4805 c0 -14 5 -25 10 -25 6 0 10 11 10 25 0 14 -4 25 -10 25
-5 0 -10 -11 -10 -25z"/>
<path d="M4584 4813 c1 -12 -9 -20 -29 -24 l-30 -7 28 -1 c48 -2 26 -26 -23
-25 -40 1 -41 0 -19 -12 60 -33 120 -3 99 50 -11 30 -28 42 -26 19z"/>
<path d="M5076 4813 c-12 -12 -6 -33 9 -33 8 0 15 6 15 14 0 17 -14 28 -24 19z"/>
<path d="M4075 4800 c-3 -5 1 -10 9 -10 9 0 16 5 16 10 0 6 -4 10 -9 10 -6 0
-13 -4 -16 -10z"/>
<path d="M4670 4780 c0 -23 -4 -30 -20 -30 -11 0 -20 -5 -20 -11 0 -6 10 -9
22 -7 18 2 24 12 29 41 3 20 2 37 -3 37 -4 0 -8 -13 -8 -30z"/>
<path d="M4780 4800 c0 -5 7 -10 15 -10 8 0 15 5 15 10 0 6 -7 10 -15 10 -8 0
-15 -4 -15 -10z"/>
<path d="M5190 4795 c0 -8 5 -15 10 -15 6 0 10 7 10 15 0 8 -4 15 -10 15 -5 0
-10 -7 -10 -15z"/>
<path d="M5290 4800 c0 -5 7 -10 15 -10 8 0 15 5 15 10 0 6 -7 10 -15 10 -8 0
-15 -4 -15 -10z"/>
<path d="M5405 4801 c-7 -12 12 -24 25 -16 11 7 4 25 -10 25 -5 0 -11 -4 -15
-9z"/>
<path d="M5631 4794 c0 -11 3 -14 6 -6 3 7 2 16 -1 19 -3 4 -6 -2 -5 -13z"/>
<path d="M5810 4780 c0 -28 -2 -30 -41 -30 -33 0 -39 -3 -31 -13 13 -15 91
-10 93 7 1 6 3 23 5 39 2 18 -2 27 -12 27 -9 0 -14 -11 -14 -30z"/>
<path d="M4460 4775 c0 -24 -2 -25 -71 -25 -38 0 -68 -4 -65 -8 3 -5 39 -9 80
-10 l74 0 0 34 c0 19 -4 34 -9 34 -5 0 -9 -11 -9 -25z"/>
<path d="M5550 4791 l-35 -7 38 -5 c26 -4 37 -1 37 8 0 7 -1 12 -2 12 -2 -1
-19 -5 -38 -8z"/>
<path d="M4842 4769 c-13 -21 -52 -25 -83 -9 -13 7 -19 7 -19 0 0 -5 -10 -10
-22 -10 -12 0 -18 -3 -15 -7 11 -10 120 -12 140 -1 12 6 30 5 52 -3 40 -15 62
-2 51 28 -7 17 -8 17 -17 1 -13 -24 -45 -23 -61 1 -14 20 -14 20 -26 0z"/>
<path d="M5129 4764 c-9 -11 -27 -15 -58 -13 -66 3 -93 0 -87 -10 7 -10 125
-9 142 2 7 4 26 2 44 -4 24 -9 34 -9 43 1 9 10 7 11 -10 6 -15 -5 -28 -1 -42
13 -17 17 -21 18 -32 5z"/>
<path d="M5260 4751 c0 -10 24 -21 46 -21 8 0 14 5 14 11 0 6 -6 9 -12 6 -7
-2 -21 0 -30 5 -11 5 -18 5 -18 -1z"/>
<path d="M5388 4748 c6 -6 18 -8 28 -6 14 3 12 5 -9 10 -19 3 -25 2 -19 -4z"/>
<path d="M5926 4750 c-15 -5 -16 -9 -7 -14 7 -5 18 -3 24 3 14 14 6 20 -17 11z"/>
<path d="M2560 4656 c0 -2 7 -7 16 -10 8 -3 12 -2 9 4 -6 10 -25 14 -25 6z"/>
<path d="M3355 4630 c4 -6 11 -8 16 -5 14 9 11 15 -7 15 -8 0 -12 -5 -9 -10z"/>
<path d="M3405 4630 c-3 -5 -1 -10 4 -10 6 0 11 5 11 10 0 6 -2 10 -4 10 -3 0
-8 -4 -11 -10z"/>
<path d="M6028 4633 c12 -2 30 -2 40 0 9 3 -1 5 -23 4 -22 0 -30 -2 -17 -4z"/>
<path d="M4935 3445 c-5 -2 -22 -6 -37 -9 -39 -9 -98 -64 -119 -111 -74 -163
93 -330 256 -256 52 23 101 80 116 133 29 106 -56 229 -166 241 -22 3 -44 3
-50 2z"/>
<path d="M8431 3094 c0 -11 3 -14 6 -6 3 7 2 16 -1 19 -3 4 -6 -2 -5 -13z"/>
<path d="M8529 3089 c-10 -56 -20 -80 -29 -74 -5 3 -12 0 -16 -6 -4 -8 -3 -9
4 -5 15 9 15 -5 -1 -24 -17 -21 -53 -48 -43 -32 4 6 2 12 -3 12 -6 0 -11 -7
-11 -15 0 -28 30 -15 59 26 32 43 57 106 47 116 -3 4 -6 4 -7 2z"/>
<path d="M8315 2929 c-16 -10 -25 -19 -20 -19 6 0 24 9 40 20 17 11 26 20 20
19 -5 0 -23 -9 -40 -20z"/>
<path d="M8407 2919 c7 -7 15 -10 18 -7 3 3 -2 9 -12 12 -14 6 -15 5 -6 -5z"/>
<path d="M8385 2900 c3 -5 8 -10 11 -10 2 0 4 5 4 10 0 6 -5 10 -11 10 -5 0
-7 -4 -4 -10z"/>
<path d="M4743 2883 c76 -2 198 -2 270 0 73 1 11 3 -138 3 -148 0 -208 -2
-132 -3z"/>
<path d="M7825 2880 c40 -10 243 -10 275 0 15 5 -44 8 -140 8 -96 0 -152 -4
-135 -8z"/>
<path d="M8178 2873 c28 -2 76 -2 105 0 28 2 5 3 -53 3 -58 0 -81 -1 -52 -3z"/>
<path d="M5822 2385 c0 -16 2 -22 5 -12 2 9 2 23 0 30 -3 6 -5 -1 -5 -18z"/>
<path d="M5590 2300 c0 -5 5 -10 10 -10 6 0 10 5 10 10 0 6 -4 10 -10 10 -5 0
-10 -4 -10 -10z"/>
<path d="M5630 2300 c0 -5 12 -10 28 -9 24 0 25 1 7 9 -27 12 -35 12 -35 0z"/>
<path d="M5033 2293 c43 -2 110 -2 150 0 40 1 5 3 -78 3 -82 0 -115 -2 -72 -3z"/>
<path d="M5303 2293 c26 -2 68 -2 95 0 26 2 4 3 -48 3 -52 0 -74 -1 -47 -3z"/>
<path d="M5503 2293 c9 -2 25 -2 35 0 9 3 1 5 -18 5 -19 0 -27 -2 -17 -5z"/>
<path d="M2460 1880 c0 -5 5 -10 10 -10 6 0 10 5 10 10 0 6 -4 10 -10 10 -5 0
-10 -4 -10 -10z"/>
<path d="M6370 1798 c0 -2 9 -29 20 -61 11 -31 20 -63 20 -71 0 -15 48 -24
159 -29 l54 -2 44 -80 c72 -131 61 -125 239 -125 140 0 154 2 166 19 14 20 14
20 26 0 10 -16 24 -19 80 -19 71 0 95 11 85 39 -7 17 -113 161 -120 161 -6 0
4 -16 54 -84 23 -32 40 -63 37 -68 -3 -4 -30 -8 -59 -8 -49 0 -56 3 -71 28
-10 15 -32 51 -51 79 -18 29 -33 55 -33 58 0 3 10 5 23 5 65 1 80 21 52 70
l-14 25 -7 -32 -6 -33 -303 0 c-342 0 -338 -1 -365 80 -11 33 -30 63 -30 48z
m633 -182 c12 -13 35 -48 50 -77 l28 -54 -23 -7 c-13 -3 -82 -6 -154 -7 -113
-1 -133 1 -146 17 -16 18 -52 85 -68 127 l-10 25 151 0 c145 0 151 -1 172 -24z
m-318 -47 c14 -27 23 -49 21 -49 -5 0 -66 98 -66 106 0 16 23 -13 45 -57z"/>
<path d="M4555 1608 c-15 -71 -24 -140 -19 -153 9 -23 36 -26 209 -23 l160 3
3 93 c2 59 -1 92 -8 92 -6 0 -10 -26 -10 -64 0 -39 -5 -67 -12 -73 -7 -5 -80
-9 -163 -9 l-150 1 2 78 c3 76 -2 98 -12 55z"/>
<path d="M5417 1550 l6 -80 -231 0 c-196 0 -233 2 -246 16 -15 14 -16 13 -16
-14 0 -18 6 -32 16 -36 9 -3 121 -6 249 -6 228 0 234 0 240 21 9 27 -5 179
-16 179 -4 0 -6 -36 -2 -80z"/>
<path d="M3816 1591 c-4 -7 -5 -15 -2 -18 9 -9 19 4 14 18 -4 11 -6 11 -12 0z"/>
<path d="M2209 1533 c-13 -16 -12 -17 4 -4 9 7 17 15 17 17 0 8 -8 3 -21 -13z"/>
<path d="M7358 1355 c-2 -3 -1187 -5 -2633 -5 -1445 0 -2626 -3 -2623 -6 3 -2
236 -5 518 -6 288 0 506 -4 499 -9 -8 -5 -140 -9 -294 -10 -154 -1 -386 -5
-515 -8 -230 -7 -1 -9 1860 -15 305 -1 528 1 495 5 -33 4 555 4 1306 1 1017
-3 1368 -2 1373 7 5 8 -53 12 -221 13 l-228 2 227 6 c162 3 231 9 240 18 6 6
10 12 7 12 -3 0 -8 -2 -11 -5z m-3895 -25 c164 0 267 -4 261 -9 -12 -13 -564
-1 -564 12 0 5 7 6 16 3 9 -3 138 -6 287 -6z m1540 3 c-204 -2 -542 -2 -750 0
-208 1 -40 2 372 2 413 0 583 -1 378 -2z m745 0 c-10 -2 -26 -2 -35 0 -10 3
-2 5 17 5 19 0 27 -2 18 -5z m1087 -3 c28 -4 -175 -8 -455 -8 -278 -1 -523 3
-545 7 -51 11 932 12 1000 1z m-2997 -17 c-16 -2 -40 -2 -55 0 -16 2 -3 4 27
4 30 0 43 -2 28 -4z m100 0 c-10 -2 -28 -2 -40 0 -13 2 -5 4 17 4 22 1 32 -1
23 -4z"/>
<path d="M2680 1280 c-47 -3 106 -7 339 -8 233 -1 422 0 420 2 -8 7 -674 13
-759 6z"/>
<path d="M5671 1754 c0 -11 3 -14 6 -6 3 7 2 16 -1 19 -3 4 -6 -2 -5 -13z"/>
<path d="M2806 1613 c-6 -14 -5 -15 5 -6 7 7 10 15 7 18 -3 3 -9 -2 -12 -12z"/>
</g>
</svg>
